<?xml version="1.0" encoding="UTF-8" standalone="no"?>
<!-- Generated by IcoMoon.io -->

<svg
   xmlns:dc="http://purl.org/dc/elements/1.1/"
   xmlns:cc="http://creativecommons.org/ns#"
   xmlns:rdf="http://www.w3.org/1999/02/22-rdf-syntax-ns#"
   xmlns:svg="http://www.w3.org/2000/svg"
   xmlns="http://www.w3.org/2000/svg"
   xmlns:sodipodi="http://sodipodi.sourceforge.net/DTD/sodipodi-0.dtd"
   xmlns:inkscape="http://www.inkscape.org/namespaces/inkscape"
   version="1.1"
   width="512"
   height="512"
   viewBox="0 0 512 512"
   id="svg9"
   sodipodi:docname="external_video_icon.svg"
   inkscape:version="0.92.3 (2405546, 2018-03-11)">
  <metadata
     id="metadata15">
    <rdf:RDF>
      <cc:Work
         rdf:about="">
        <dc:format>image/svg+xml</dc:format>
        <dc:type
           rdf:resource="http://purl.org/dc/dcmitype/StillImage" />
      </cc:Work>
    </rdf:RDF>
  </metadata>
  <defs
     id="defs13" />
  <sodipodi:namedview
     pagecolor="#ffffff"
     bordercolor="#666666"
     borderopacity="1"
     objecttolerance="10"
     gridtolerance="10"
     guidetolerance="10"
     inkscape:pageopacity="0"
     inkscape:pageshadow="2"
     inkscape:window-width="1916"
     inkscape:window-height="1041"
     id="namedview11"
     showgrid="false"
     inkscape:zoom="1.6114807"
     inkscape:cx="147.09395"
     inkscape:cy="256"
     inkscape:window-x="1920"
     inkscape:window-y="18"
     inkscape:window-maximized="0"
     inkscape:current-layer="svg9" />
  <title
     id="title2" />
  <g
     id="icomoon-ignore" />
  <path
     d="M220.118 317.883c-6.655 0-13.308-2.538-18.385-7.615-47.567-47.568-47.567-124.967 0-172.535l96-96c23.044-23.043 53.68-35.733 86.267-35.733s63.224 12.69 86.268 35.732c47.566 47.568 47.566 124.967 0 172.535l-43.883 43.883c-10.154 10.154-26.615 10.154-36.77 0-10.153-10.153-10.153-26.616 0-36.77l43.883-43.883c27.292-27.293 27.292-71.702 0-98.995-13.221-13.221-30.8-20.502-49.498-20.502s-36.276 7.281-49.498 20.503l-96 95.999c-27.293 27.293-27.293 71.703 0 98.996 10.154 10.153 10.153 26.616 0 36.77-5.075 5.076-11.731 7.615-18.384 7.615z"
     id="path5" />
  <path
     d="M128 506c-32.588 0-63.225-12.69-86.267-35.732-47.567-47.568-47.567-124.967 0-172.535l43.882-43.882c10.154-10.153 26.617-10.153 36.77 0 10.154 10.153 10.154 26.616 0 36.77l-43.882 43.882c-27.293 27.293-27.293 71.703 0 98.996 13.22 13.22 30.799 20.501 49.497 20.501s36.276-7.281 49.499-20.503l96-95.999c27.292-27.293 27.292-71.703 0-98.996-10.154-10.154-10.153-26.616 0-36.77 10.153-10.153 26.616-10.153 36.77 0.001 47.566 47.567 47.566 124.966 0.001 172.534l-96.001 96c-23.045 23.044-53.682 35.733-86.269 35.733z"
     id="path7" />
  <path
     style="opacity:1;fill:#ffffff;fill-opacity:1;stroke:#000000;stroke-width:0.24821892;stroke-miterlimit:4;stroke-dasharray:none;stroke-opacity:1"
     d="M 112.83974,504.81972 C 76.7132,499.84464 45.591115,480.27008 25.960622,450.17621 -0.14052114,410.16273 0.03710618,357.17414 26.406637,317.12391 c 6.08376,-9.24006 11.922972,-15.61804 38.115037,-41.63184 26.022222,-25.8451 26.802368,-26.49876 33.69928,-28.23542 1.577145,-0.39713 5.028416,-0.59696 7.669486,-0.44407 17.44222,1.00971 28.65561,19.70063 21.52036,35.87095 -1.63985,3.71635 -3.85987,6.13202 -28.229152,30.71709 -26.768692,27.00574 -29.531226,30.18463 -33.974072,39.09448 -5.097242,10.22221 -7.212084,19.53338 -7.188183,31.64792 0.02406,12.19597 1.956188,20.61438 7.171175,31.24529 9.487287,19.34013 28.228932,33.52483 49.752762,37.65561 5.95137,1.14217 18.94439,1.30262 24.62515,0.30411 10.09887,-1.77508 20.29457,-5.9729 28.81024,-11.86186 5.74711,-3.97437 110.15729,-108.48328 113.70546,-113.81296 15.87485,-23.84557 16.04574,-54.89411 0.43225,-78.53691 -1.47874,-2.23919 -4.77828,-6.41201 -7.33232,-9.27295 -2.55404,-2.86093 -5.36764,-6.63253 -6.25245,-8.38132 -7.13737,-14.10675 0.66494,-31.5841 16.07783,-36.01473 5.34196,-1.53561 12.54948,-0.99747 17.43964,1.3021 8.90376,4.18696 22.39674,20.79149 30.73425,37.82172 20.86353,42.61593 15.01562,93.09574 -15.13249,130.6252 -4.93352,6.14143 -106.71348,107.90005 -112.88109,112.85743 -16.97775,13.6463 -34.77089,21.79919 -56.64859,25.95661 -5.84958,1.11159 -29.53648,1.63561 -35.68147,0.78936 z"
     id="path3720"
     inkscape:connector-curvature="0" />
  <path
     style="opacity:1;fill:#ffffff;fill-opacity:1;stroke:#000000;stroke-width:0.24821892;stroke-miterlimit:4;stroke-dasharray:none;stroke-opacity:1"
     d="m 213.05813,316.59903 c -4.83123,-1.59994 -8.1181,-3.73837 -12.44519,-8.09682 -23.4929,-23.66313 -36.63805,-59.73761 -33.89053,-93.00639 2.19163,-26.53782 11.71191,-50.08358 28.1588,-69.64297 7.24141,-8.61181 109.84952,-110.586168 115.415,-114.702145 17.66864,-13.066921 36.33413,-20.784153 57.34403,-23.7088336 9.34728,-1.3011876 28.62005,-0.9718214 37.47728,0.6404761 45.61644,8.3036475 82.72478,41.5689195 95.57326,85.6753505 11.18317,38.389772 2.9528,79.248392 -22.36882,111.047152 -2.17425,2.73041 -15.41583,16.44921 -29.42574,30.48621 -23.62963,23.67534 -25.78684,25.67048 -29.81639,27.57643 -8.07614,3.81994 -18.22159,3.06497 -25.42647,-1.89213 -8.25361,-5.67863 -12.6777,-15.86109 -10.95455,-25.21294 1.57534,-8.54968 2.17064,-9.28513 31.08583,-38.40414 28.48971,-28.69053 30.24254,-30.79433 34.82192,-41.79451 6.50945,-15.6364 7.27544,-34.12762 2.05776,-49.67489 -6.39485,-19.05492 -20.5753,-34.501384 -38.94353,-42.420358 -17.78346,-7.666867 -39.87366,-7.396768 -57.14909,0.698768 -11.18673,5.242279 -11.64749,5.660944 -66.93615,60.82033 -29.63671,29.56741 -53.59038,53.96876 -55.67784,56.71843 -6.78589,8.93858 -11.99516,21.5923 -13.57999,32.9868 -1.92122,13.81302 0.76635,29.05417 7.34325,41.64352 3.35549,6.42297 6.30514,10.57741 11.83824,16.6735 2.18245,2.40452 4.74373,6.08496 5.82998,8.37739 1.78765,3.77271 1.9374,4.59336 1.9374,10.61753 0,6.14288 -0.12205,6.77671 -2.06472,10.72283 -2.61961,5.32118 -6.99256,9.70319 -12.28149,12.30692 -3.62039,1.78231 -4.85753,2.06194 -9.792,2.21329 -3.48703,0.10694 -6.59779,-0.1413 -8.13025,-0.6488 z"
     id="path3722"
     inkscape:connector-curvature="0" />
</svg>
